<svg width="21" height="20" viewBox="0 0 21 20" fill="none" xmlns="http://www.w3.org/2000/svg">
<path d="M20.9897 19.3274L17.9713 2.64454C17.9708 2.64198 17.9701 2.63952 17.9696 2.63696C17.968 2.62888 17.966 2.62097 17.9642 2.61301C17.9616 2.60156 17.9587 2.59021 17.9555 2.57897C17.9535 2.57201 17.9511 2.56516 17.9488 2.55825C17.9429 2.54007 17.9361 2.52228 17.9285 2.50494C17.9207 2.48736 17.9122 2.47025 17.903 2.4537C17.8964 2.442 17.8894 2.43061 17.882 2.41955C17.8798 2.41626 17.8781 2.4127 17.8758 2.40941C17.8748 2.40802 17.8737 2.40685 17.8727 2.40551C17.8644 2.39378 17.8556 2.38245 17.8465 2.37153C17.8438 2.3683 17.8412 2.36479 17.8385 2.36162C17.8268 2.34821 17.8145 2.33553 17.8017 2.32363C17.7973 2.31962 17.7927 2.31616 17.7883 2.31232C17.7796 2.3047 17.7708 2.29744 17.7617 2.29054C17.7556 2.28597 17.7492 2.28191 17.7429 2.27767C17.735 2.27225 17.727 2.2671 17.7188 2.26224C17.6974 2.24995 17.6753 2.23938 17.6527 2.2306C17.6434 2.22713 17.634 2.22399 17.6246 2.22119C17.6181 2.21924 17.6117 2.21723 17.6051 2.21562C17.5945 2.21307 17.5838 2.21095 17.5731 2.20927C17.5673 2.20832 17.5617 2.2071 17.5559 2.20637C17.5426 2.20482 17.5292 2.20395 17.5158 2.20375C17.5127 2.2037 17.5097 2.20314 17.5066 2.20314H12.4059C12.6011 1.56884 13.1196 1.11408 13.727 1.11408C14.0625 1.11404 14.3869 1.25488 14.6415 1.51108C14.8406 1.71178 15.1405 1.68504 15.3115 1.4517C15.4825 1.21841 15.4598 0.866695 15.2608 0.666162C14.8339 0.23633 14.2898 4.70207e-06 13.727 0C12.5917 0 11.6414 0.947299 11.421 2.20314H5.95531C6.15049 1.56884 6.66893 1.11408 7.27641 1.11408C7.6119 1.11402 7.93631 1.25486 8.19086 1.51108C8.38984 1.71161 8.68983 1.68504 8.86087 1.4517C9.03191 1.21841 9.0092 0.866695 8.81022 0.666162C8.38331 0.236326 7.83919 -1.71274e-06 7.27646 0C6.14103 0 5.1908 0.947299 4.97045 2.20314H3.49346C3.38457 2.20312 3.27898 2.24697 3.19438 2.32733C3.10977 2.4077 3.05128 2.5197 3.0287 2.64459L2.22305 7.09755L2.22215 7.10268L0.010352 19.3274C-0.00434039 19.4085 -0.00338235 19.4925 0.0131561 19.5732C0.0296946 19.6539 0.0613956 19.7292 0.105943 19.7936C0.150491 19.8581 0.206759 19.9101 0.270638 19.9458C0.334516 19.9815 0.40439 20 0.475156 20H14.4882C14.5971 20 14.7027 19.9562 14.7873 19.8758C14.8719 19.7954 14.9304 19.6834 14.953 19.5585L17.5066 5.44454L19.9385 18.8859H15.9136C15.6512 18.8859 15.4384 19.1354 15.4384 19.443C15.4384 19.7506 15.6512 20 15.9136 20H20.5249C20.5957 20 20.6655 19.9814 20.7294 19.9457C20.7933 19.91 20.8495 19.858 20.8941 19.7936C20.9386 19.7291 20.9703 19.6538 20.9868 19.5732C21.0034 19.4925 21.0043 19.4085 20.9897 19.3274ZM3.8784 3.31716H4.9703C5.19066 4.573 6.14094 5.5203 7.27632 5.5203C7.53867 5.5203 7.75143 5.27086 7.75143 4.96326C7.75143 4.65567 7.53867 4.40623 7.27632 4.40623C6.66888 4.40623 6.15039 3.95146 5.95521 3.31716H11.4209C11.6413 4.573 12.5916 5.5203 13.7269 5.5203C13.9893 5.5203 14.2021 5.27086 14.2021 4.96326C14.2021 4.65567 13.9893 4.40623 13.7269 4.40623C13.1195 4.40623 12.601 3.95146 12.4058 3.31716H16.92L16.316 6.65566H3.27438L3.8784 3.31716ZM14.1033 18.886H1.06159L3.07284 7.76973H16.1145L14.1033 18.886Z" fill="white"/>
</svg>
