<svg width="16" height="19" viewBox="0 0 16 19" fill="none" xmlns="http://www.w3.org/2000/svg">
<g clip-path="url(#clip0_123_186)">
<path d="M8 0C6.41775 0 4.87103 0.557165 3.55544 1.60104C2.23985 2.64491 1.21447 4.12861 0.608967 5.86451C0.00346629 7.60041 -0.15496 9.51054 0.153721 11.3534C0.462403 13.1962 1.22433 14.8889 2.34315 16.2175C3.46197 17.5461 4.88743 18.4509 6.43928 18.8175C7.99113 19.184 9.59966 18.9959 11.0615 18.2769C12.5233 17.5578 13.7727 16.3402 14.6518 14.7779C15.5308 13.2157 16 11.3789 16 9.5C15.9977 6.98128 15.1541 4.5665 13.6543 2.78549C12.1545 1.00449 10.121 0.00272419 8 0V0ZM8 17.4167C6.68146 17.4167 5.39253 16.9524 4.2962 16.0825C3.19987 15.2126 2.34539 13.9762 1.84081 12.5296C1.33622 11.083 1.2042 9.49122 1.46144 7.95554C1.71867 6.41985 2.35361 5.00924 3.28596 3.90207C4.21831 2.79491 5.4062 2.04092 6.6994 1.73545C7.99261 1.42998 9.33305 1.58676 10.5512 2.18595C11.7694 2.78515 12.8106 3.79985 13.5431 5.10174C14.2757 6.40363 14.6667 7.93423 14.6667 9.5C14.6647 11.5989 13.9617 13.6112 12.7119 15.0954C11.4621 16.5795 9.76752 17.4144 8 17.4167V17.4167Z" fill="#4EBDAA"/>
<path d="M7.99988 4.75C7.82307 4.75 7.6535 4.83341 7.52848 4.98187C7.40345 5.13034 7.33322 5.3317 7.33322 5.54167V8.96562L5.08588 10.6376C4.93559 10.7491 4.82876 10.9269 4.78887 11.132C4.74899 11.337 4.77933 11.5524 4.87322 11.7309C4.9671 11.9094 5.11685 12.0362 5.2895 12.0836C5.46216 12.131 5.64359 12.0949 5.79388 11.9834L8.35388 10.0835C8.45061 10.0115 8.53015 9.91124 8.5849 9.7923C8.63964 9.67337 8.66776 9.53974 8.66655 9.4042V5.54167C8.66655 5.3317 8.59631 5.13034 8.47129 4.98187C8.34626 4.83341 8.17669 4.75 7.99988 4.75Z" fill="#4EBDAA"/>
</g>
<defs>
<clipPath id="clip0_123_186">
<rect width="16" height="19" fill="white"/>
</clipPath>
</defs>
</svg>
