<svg width="77" height="45" viewBox="0 0 77 45" fill="none" xmlns="http://www.w3.org/2000/svg">
<path d="M18.7098 32.77C18.1029 32.77 17.5096 32.9599 17.0049 33.3159C16.5002 33.6718 16.1069 34.1777 15.8746 34.7695C15.6424 35.3614 15.5816 36.0127 15.7 36.641C15.8184 37.2693 16.1107 37.8465 16.5399 38.2995C16.969 38.7525 17.5159 39.061 18.1111 39.186C18.7064 39.3109 19.3235 39.2468 19.8842 39.0016C20.445 38.7565 20.9242 38.3413 21.2615 37.8086C21.5987 37.276 21.7786 36.6497 21.7786 36.0091C21.7776 35.1504 21.4539 34.3271 20.8787 33.7199C20.3034 33.1127 19.5234 32.7711 18.7098 32.77ZM18.7098 36.8149C18.5589 36.8149 18.4113 36.7676 18.2857 36.6791C18.1602 36.5905 18.0623 36.4647 18.0045 36.3174C17.9468 36.1702 17.9316 36.0082 17.9611 35.8519C17.9906 35.6956 18.0633 35.552 18.17 35.4393C18.2768 35.3266 18.4128 35.2499 18.5609 35.2188C18.709 35.1877 18.8625 35.2036 19.002 35.2646C19.1415 35.3256 19.2607 35.4289 19.3446 35.5614C19.4285 35.6939 19.4733 35.8497 19.4733 36.0091C19.4729 36.2227 19.3924 36.4274 19.2493 36.5784C19.1062 36.7295 18.9122 36.8145 18.7098 36.8149ZM58.7788 32.77C58.1719 32.77 57.5785 32.9599 57.0739 33.3159C56.5692 33.6718 56.1759 34.1777 55.9436 34.7695C55.7113 35.3614 55.6506 36.0127 55.769 36.641C55.8874 37.2693 56.1797 37.8465 56.6088 38.2995C57.038 38.7525 57.5848 39.061 58.1801 39.186C58.7754 39.3109 59.3924 39.2468 59.9532 39.0016C60.5139 38.7565 60.9932 38.3413 61.3304 37.8086C61.6676 37.276 61.8476 36.6497 61.8476 36.0091C61.8467 35.1503 61.5231 34.327 60.9478 33.7197C60.3725 33.1125 59.5924 32.7709 58.7788 32.77ZM58.7788 36.8149C58.6278 36.8149 58.4802 36.7676 58.3547 36.6791C58.2291 36.5905 58.1313 36.4647 58.0735 36.3174C58.0157 36.1702 58.0006 36.0082 58.0301 35.8519C58.0595 35.6956 58.1322 35.552 58.239 35.4393C58.3458 35.3266 58.4818 35.2499 58.6299 35.2188C58.778 35.1877 58.9315 35.2036 59.0709 35.2646C59.2104 35.3256 59.3297 35.4289 59.4136 35.5614C59.4974 35.6939 59.5422 35.8497 59.5422 36.0091C59.542 36.2227 59.4616 36.4276 59.3184 36.5786C59.1753 36.7297 58.9812 36.8147 58.7788 36.8149ZM19.4877 22.1516H16.7931C16.4874 22.1516 16.1942 22.2798 15.978 22.508C15.7618 22.7362 15.6404 23.0456 15.6404 23.3683C15.6404 23.691 15.7618 24.0004 15.978 24.2286C16.1942 24.4568 16.4874 24.585 16.7931 24.585H19.4877C19.7935 24.585 20.0866 24.4568 20.3028 24.2286C20.519 24.0004 20.6404 23.691 20.6404 23.3683C20.6404 23.0456 20.519 22.7362 20.3028 22.508C20.0866 22.2798 19.7935 22.1516 19.4877 22.1516ZM41.7031 22.1516H39.0091C38.7034 22.1516 38.4102 22.2798 38.194 22.508C37.9779 22.7362 37.8564 23.0456 37.8564 23.3683C37.8564 23.691 37.9779 24.0004 38.194 24.2286C38.4102 24.4568 38.7034 24.585 39.0091 24.585H41.7031C42.0088 24.585 42.302 24.4568 42.5182 24.2286C42.7344 24.0004 42.8558 23.691 42.8558 23.3683C42.8558 23.0456 42.7344 22.7362 42.5182 22.508C42.302 22.2798 42.0088 22.1516 41.7031 22.1516ZM35.2362 4.99181H27.2984C25.9055 4.99114 24.5383 5.38746 23.3412 6.13894C22.144 6.89042 21.1613 7.96916 20.4968 9.26125L15.7807 18.4266C15.6852 18.6118 15.637 18.8201 15.6408 19.0309C15.6446 19.2418 15.7003 19.4479 15.8024 19.6292C15.9045 19.8105 16.0495 19.9606 16.2232 20.0648C16.3969 20.1691 16.5933 20.2238 16.7931 20.2237H35.2362C35.3876 20.2238 35.5375 20.1924 35.6774 20.1313C35.8173 20.0702 35.9444 19.9806 36.0514 19.8676C36.1585 19.7546 36.2434 19.6204 36.3013 19.4728C36.3592 19.3251 36.389 19.1669 36.3889 19.0071V6.20847C36.3889 5.88579 36.2674 5.57633 36.0513 5.34816C35.8351 5.11999 35.5419 4.99181 35.2362 4.99181ZM34.0868 17.7904H18.7309L22.523 10.4209C22.9894 9.51362 23.6793 8.75615 24.5199 8.22848C25.3604 7.70081 26.3204 7.42253 27.2984 7.42305H34.0868V17.7904ZM53.6496 9.26125C52.9852 7.96931 52.0026 6.89068 50.8055 6.13922C49.6085 5.38775 48.2415 4.99134 46.8488 4.99181H39.0104C38.859 4.99172 38.709 5.02311 38.569 5.08421C38.429 5.1453 38.3019 5.23489 38.1947 5.34787C38.0875 5.46085 38.0025 5.595 37.9445 5.74266C37.8864 5.89032 37.8565 6.0486 37.8564 6.20847V19.0071C37.8564 19.3298 37.9779 19.6392 38.194 19.8674C38.4102 20.0956 38.7034 20.2237 39.0091 20.2237H57.3534C57.5532 20.2237 57.7496 20.1689 57.9232 20.0647C58.0969 19.9605 58.2419 19.8104 58.3441 19.6292C58.4462 19.448 58.502 19.2418 58.5059 19.031C58.5098 18.8202 58.4618 18.6119 58.3665 18.4266L53.6496 9.26125ZM40.1618 17.7904V7.42513H46.8488C47.8266 7.42474 48.7864 7.70308 49.6269 8.23074C50.4673 8.7584 51.1571 9.51582 51.6235 10.423L55.4156 17.7925L40.1618 17.7904Z" fill="white"/>
<path d="M75.8927 23.9259V23.9141C75.5705 23.26 75.1849 22.6431 74.742 22.0731C74.7249 22.0529 74.7084 22.0321 74.6906 22.0126C74.5688 21.8513 74.4337 21.6928 74.2915 21.5259C72.5482 19.5506 70.1566 18.3516 67.6045 18.1735C66.2985 18.0847 65.0353 17.6468 63.9336 16.901C62.832 16.1553 61.9281 15.1261 61.3069 13.9103L57.1407 5.86086C56.2646 4.09085 54.9452 2.60846 53.3262 1.57506C51.7072 0.541667 49.8507 -0.00312009 47.9587 1.34418e-05H25.4647C23.6037 -0.000892592 21.7768 0.527403 20.1761 1.52937C18.5754 2.53133 17.2601 3.96995 16.3683 5.694L11.608 14.8663C11.1627 15.7267 10.5288 16.4622 9.75922 17.0112C8.98962 17.5602 8.1067 17.9067 7.18425 18.0219L4.13653 18.3967C2.99723 18.5349 1.94597 19.1109 1.18311 20.0147C0.420248 20.9185 -0.000875499 22.0869 1.36661e-06 23.2974V33.1975C0.00191909 34.9947 0.679152 36.7177 1.88312 37.9885C3.0871 39.2593 4.71948 39.9741 6.42215 39.9761H11.2766C11.97 41.4294 13.0321 42.6508 14.3446 43.5043C15.657 44.3577 17.1683 44.8097 18.7099 44.8097C20.2514 44.8097 21.7627 44.3577 23.0752 43.5043C24.3877 42.6508 25.4498 41.4294 26.1431 39.9761H51.3443C52.0376 41.4294 53.0997 42.6508 54.4122 43.5043C55.7247 44.3577 57.236 44.8097 58.7775 44.8097C60.3191 44.8097 61.8304 44.3577 63.1428 43.5043C64.4553 42.6508 65.5174 41.4294 66.2107 39.9761H70.5778C72.2805 39.9741 73.9129 39.2593 75.1168 37.9885C76.3208 36.7177 76.998 34.9947 77 33.1975V28.7967C77.0046 27.1031 76.625 25.4329 75.8927 23.9259ZM74.1143 25.6959C74.4296 26.479 74.6136 27.3138 74.6583 28.1633C71.3867 27.9965 70.1576 27.1038 69.7841 25.6959H74.1143ZM2.30605 25.6959H6.02694L5.28922 28.3295H2.30737L2.30605 25.6959ZM18.7072 42.3761C17.514 42.3761 16.3477 42.0026 15.3556 41.3029C14.3635 40.6032 13.5902 39.6087 13.1336 38.4452C12.677 37.2816 12.5575 36.0013 12.7903 34.7661C13.0231 33.5309 13.5976 32.3963 14.4414 31.5058C15.2851 30.6152 16.36 30.0088 17.5303 29.7631C18.7005 29.5174 19.9136 29.6435 21.0159 30.1254C22.1183 30.6074 23.0605 31.4235 23.7234 32.4707C24.3863 33.5179 24.7401 34.749 24.7401 36.0084C24.7384 37.6962 24.1026 39.3144 22.9722 40.5082C21.8418 41.702 20.309 42.374 18.7099 42.3768L18.7072 42.3761ZM58.7762 42.3761C57.583 42.3761 56.4166 42.0026 55.4245 41.3029C54.4324 40.6032 53.6592 39.6087 53.2026 38.4452C52.7459 37.2816 52.6265 36.0013 52.8592 34.7661C53.092 33.5309 53.6666 32.3963 54.5103 31.5058C55.354 30.6152 56.429 30.0088 57.5992 29.7631C58.7695 29.5174 59.9825 29.6435 61.0849 30.1254C62.1872 30.6074 63.1294 31.4235 63.7923 32.4707C64.4552 33.5179 64.8091 34.749 64.8091 36.0084C64.8075 37.6963 64.1718 39.3146 63.0413 40.5084C61.9109 41.7023 60.378 42.3742 58.7788 42.3768L58.7762 42.3761ZM70.5778 37.5428H66.9821C67.201 36.2743 67.1532 34.9705 66.8421 33.7237C66.531 32.4768 65.9641 31.3174 65.1815 30.3273C64.3989 29.3372 63.4198 28.5408 62.3135 27.9942C61.2071 27.4476 60.0004 27.1643 58.7788 27.1643C57.5573 27.1643 56.3506 27.4476 55.2442 27.9942C54.1378 28.5408 53.1587 29.3372 52.3762 30.3273C51.5936 31.3174 51.0267 32.4768 50.7156 33.7237C50.4044 34.9705 50.3567 36.2743 50.5756 37.5428H26.9124C27.1323 36.2739 27.0852 34.9695 26.7745 33.7219C26.4638 32.4743 25.8971 31.3141 25.1145 30.3233C24.3319 29.3325 23.3525 28.5354 22.2457 27.9884C21.1389 27.4414 19.9317 27.1578 18.7095 27.1578C17.4874 27.1578 16.2802 27.4414 15.1734 27.9884C14.0666 28.5354 13.0872 29.3325 12.3046 30.3233C11.522 31.3141 10.9553 32.4743 10.6446 33.7219C10.3339 34.9695 10.2868 36.2739 10.5066 37.5428H6.42215C5.33069 37.5415 4.28429 37.0833 3.51251 36.2687C2.74073 35.4541 2.30661 34.3496 2.30539 33.1975V30.7642H6.15012C6.39865 30.7643 6.64054 30.6795 6.83963 30.5225C7.03873 30.3655 7.18435 30.1447 7.25473 29.8931L8.67682 24.8269C8.72791 24.6454 8.73812 24.4538 8.70664 24.2673C8.67517 24.0809 8.60288 23.9048 8.49553 23.7531C8.38818 23.6014 8.24875 23.4782 8.08833 23.3934C7.92792 23.3086 7.75096 23.2646 7.57155 23.2647H2.30802C2.3151 22.6576 2.53155 22.074 2.91685 21.6232C3.30215 21.1724 3.82989 20.8852 4.40132 20.8154L7.45299 20.44C8.74126 20.2792 9.97436 19.7953 11.0492 19.0288C12.1241 18.2622 13.0095 17.2352 13.6314 16.0336L18.3878 6.862C19.0814 5.52061 20.1047 4.40135 21.3501 3.622C22.5955 2.84265 24.0168 2.43203 25.4647 2.43334H47.9587C49.4328 2.43174 50.8791 2.85736 52.1398 3.66379C53.4005 4.47023 54.4272 5.62653 55.108 7.0066L59.2761 15.0762C60.082 16.6528 61.2544 17.9872 62.6832 18.9542C64.1119 19.9212 65.7501 20.4889 67.4438 20.604C69.4439 20.7413 71.3149 21.6948 72.6606 23.2626H68.501C68.1953 23.2626 67.9021 23.3908 67.6859 23.619C67.4697 23.8471 67.3483 24.1566 67.3483 24.4793C67.3483 29.7819 71.9406 30.5077 74.6952 30.6078V33.1975C74.694 34.3497 74.2598 35.4543 73.4879 36.2689C72.716 37.0835 71.6694 37.5417 70.5778 37.5428Z" fill="white"/>
</svg>
