<svg width="19" height="19" viewBox="0 0 19 19" fill="none" xmlns="http://www.w3.org/2000/svg">
<path d="M15.9071 11.7234C14.5859 11.2966 13.4428 11.4377 12.7711 12.1056L11.962 12.9145C9.52744 11.5304 7.46397 9.46728 6.07966 7.03308L6.88872 6.22415C7.57531 5.53768 7.73489 4.46901 7.33408 3.21851C6.89243 1.84556 5.71224 0.249972 4.56917 0.0607272C3.42238 -0.128517 2.11601 0.806572 1.27726 1.74537C0.275213 2.866 -0.177564 4.04599 0.0636697 4.89944C1.00262 8.21308 2.8026 11.267 5.26689 13.7308C7.73118 16.1947 10.7856 17.9944 14.0997 18.9332C14.263 18.9777 14.4263 19 14.5933 19C15.7253 19 16.8906 18.0464 17.2543 17.7198C18.1933 16.8812 19.1285 15.5751 18.9393 14.4247C18.7314 13.1742 17.2209 12.1464 15.9071 11.7234ZM16.4638 16.8367C15.6065 17.6011 14.79 17.8979 14.4263 17.794C8.07262 15.9906 3.00672 10.9256 1.20303 4.5729C1.09912 4.20555 1.39602 3.3892 2.16055 2.53203C2.86198 1.74908 3.71557 1.21846 4.25742 1.21846C4.29825 1.21846 4.33907 1.22217 4.37618 1.22588C4.82896 1.30009 5.78647 2.276 6.20585 3.57473C6.3543 4.04228 6.53615 4.89573 6.05368 5.37812L4.92916 6.50245C4.7436 6.68799 4.70278 6.97 4.82525 7.20006C6.38028 10.1426 8.85199 12.6176 11.7876 14.1761C12.0177 14.2986 12.2998 14.2578 12.4853 14.0722L13.6099 12.9479C13.9439 12.6139 14.6824 12.5805 15.5397 12.8551C16.6642 13.2188 17.6626 14.0091 17.7628 14.6214C17.8556 15.152 17.3063 16.0834 16.4638 16.8367ZM10.3848 0.476323C10.4516 0.153494 10.7633 -0.0543036 11.0862 0.0124885C13.0272 0.40582 14.8049 1.36317 16.2189 2.78065C17.6366 4.19813 18.5941 5.97183 18.9875 7.91251C19.0543 8.23534 18.8465 8.54704 18.5236 8.61383C18.4828 8.62125 18.4457 8.62496 18.4048 8.62496C18.1265 8.62496 17.8815 8.43201 17.8222 8.14999C17.1207 4.68423 14.3187 1.88267 10.8487 1.18135C10.5295 1.11085 10.3217 0.799151 10.3848 0.476323ZM9.21199 3.84932C9.26766 3.5265 9.57569 3.30757 9.89857 3.36694C11.3311 3.61555 12.6338 4.29461 13.6729 5.32988C14.7121 6.36516 15.3913 7.67132 15.6362 9.10364C15.6919 9.42647 15.4766 9.73445 15.1538 9.79011C15.1203 9.79753 15.0869 9.79753 15.0535 9.79753C14.7715 9.79753 14.5191 9.59345 14.4672 9.30401C14.0478 6.86981 12.1291 4.9551 9.69816 4.5358C9.37157 4.48014 9.15632 4.17215 9.21199 3.84932Z" fill="white"/>
</svg>
