<svg width="24" height="26" viewBox="0 0 24 26" fill="none" xmlns="http://www.w3.org/2000/svg">
<g clip-path="url(#clip0_123_192)">
<path d="M12 6.5C11.2089 6.5 10.4355 6.75415 9.77772 7.2303C9.11993 7.70645 8.60723 8.38323 8.30448 9.17504C8.00173 9.96685 7.92252 10.8381 8.07686 11.6787C8.2312 12.5193 8.61216 13.2914 9.17157 13.8975C9.73098 14.5035 10.4437 14.9162 11.2196 15.0834C11.9956 15.2506 12.7998 15.1648 13.5307 14.8368C14.2616 14.5088 14.8864 13.9534 15.3259 13.2408C15.7654 12.5282 16 11.6904 16 10.8333C16 9.68406 15.5786 8.58186 14.8284 7.7692C14.0783 6.95655 13.0609 6.5 12 6.5ZM12 13C11.6044 13 11.2178 12.8729 10.8889 12.6349C10.56 12.3968 10.3036 12.0584 10.1522 11.6625C10.0009 11.2666 9.96126 10.8309 10.0384 10.4106C10.1156 9.99035 10.3061 9.60428 10.5858 9.30127C10.8655 8.99826 11.2219 8.7919 11.6098 8.7083C11.9978 8.6247 12.3999 8.6676 12.7654 8.83159C13.1308 8.99558 13.4432 9.27329 13.6629 9.6296C13.8827 9.9859 14 10.4048 14 10.8333C14 11.408 13.7893 11.9591 13.4142 12.3654C13.0391 12.7717 12.5304 13 12 13Z" fill="#4EBDAA"/>
<path d="M11.9998 26.0005C11.1578 26.0051 10.3269 25.7912 9.57689 25.3765C8.82684 24.9619 8.17942 24.3586 7.68882 23.6171C3.87782 17.922 1.94482 13.6407 1.94482 10.8912C1.94482 8.00223 3.00419 5.23157 4.88987 3.18875C6.77554 1.14593 9.33307 -0.00170898 11.9998 -0.00170898C14.6666 -0.00170898 17.2241 1.14593 19.1098 3.18875C20.9955 5.23157 22.0548 8.00223 22.0548 10.8912C22.0548 13.6407 20.1218 17.922 16.3108 23.6171C15.8202 24.3586 15.1728 24.9619 14.4228 25.3765C13.6727 25.7912 12.8419 26.0051 11.9998 26.0005V26.0005ZM11.9998 2.36321C9.91224 2.36579 7.91084 3.26533 6.4347 4.86449C4.95855 6.46364 4.12821 8.63183 4.12582 10.8934C4.12582 13.0709 6.01882 17.0976 9.45482 22.2315C9.74652 22.6668 10.1292 23.0211 10.5715 23.2653C11.0139 23.5096 11.5033 23.637 11.9998 23.637C12.4963 23.637 12.9858 23.5096 13.4281 23.2653C13.8705 23.0211 14.2531 22.6668 14.5448 22.2315C17.9808 17.0976 19.8738 13.0709 19.8738 10.8934C19.8714 8.63183 19.0411 6.46364 17.565 4.86449C16.0888 3.26533 14.0874 2.36579 11.9998 2.36321V2.36321Z" fill="#4EBDAA"/>
</g>
<defs>
<clipPath id="clip0_123_192">
<rect width="24" height="26" fill="white"/>
</clipPath>
</defs>
</svg>
