<svg width="65" height="59" viewBox="0 0 65 59" fill="none" xmlns="http://www.w3.org/2000/svg">
<path d="M65 21.9143C65 18.3321 61.2083 15.1714 56.3333 15.1714C51.4583 15.1714 47.6667 18.1214 47.6667 21.9143C47.6667 24.8643 50.1042 27.3929 53.625 28.2357V42.5643C53.625 49.3071 46.5833 54.7857 37.9167 54.7857C29.25 54.7857 22.2083 49.3071 22.2083 42.5643V35.4C31.6875 34.3464 39.2708 27.6036 39.2708 19.3857V8.00714C39.2708 4.84643 36.0208 2.31786 31.9583 2.31786H30.6042C30.6042 1.05357 29.5208 0.210714 27.8958 0.210714C26.2708 0.210714 25.1875 1.05357 25.1875 2.31786V6.74286C25.1875 8.00714 26.2708 8.85 27.8958 8.85C29.5208 8.85 30.6042 8.00714 30.6042 6.74286H31.9583C33.0417 6.74286 33.8542 7.375 33.8542 8.21786V19.5964C33.8542 26.1286 27.3542 31.6071 19.5 31.6071C11.6458 31.6071 5.41667 25.9179 5.41667 19.3857V8.00714C5.41667 7.16429 6.22917 6.32143 7.3125 6.32143H8.39583C8.39583 7.58571 9.47917 8.42857 11.1042 8.42857C12.7292 8.42857 13.8125 7.58571 13.8125 6.32143V2.10714C13.8125 0.842857 12.7292 0 11.1042 0C9.47917 0 8.39583 0.842857 8.39583 2.10714H7.3125C3.25 2.10714 0 4.84643 0 8.00714V19.3857C0 27.6036 7.3125 34.3464 17.0625 35.4V42.5643C17.0625 51.625 26.5417 59 38.1875 59C49.8333 59 59.3125 51.625 59.3125 42.5643V28.2357C62.5625 27.3929 65 24.8643 65 21.9143ZM56.3333 24.4429C54.7083 24.4429 53.0833 23.3893 53.0833 21.9143C53.0833 20.65 54.4375 19.3857 56.3333 19.3857C58.2292 19.3857 59.5833 20.4393 59.5833 21.9143C59.5833 23.3893 58.2292 24.4429 56.3333 24.4429Z" fill="white"/>
</svg>
