<svg width="55" height="70" viewBox="0 0 55 70" fill="none" xmlns="http://www.w3.org/2000/svg">
<path d="M46.8424 35.4873C46.6104 35.232 46.3334 35.0289 46.0278 34.89C45.7221 34.7511 45.3939 34.6791 45.0621 34.6781C44.7303 34.6772 44.4017 34.7474 44.0954 34.8847C43.7891 35.0219 43.5112 35.2234 43.278 35.4775C43.0447 35.7316 42.8607 36.0331 42.7368 36.3645C42.6128 36.6959 42.5514 37.0505 42.556 37.4078C42.5606 37.765 42.6311 38.1177 42.7636 38.4453C42.896 38.7729 43.0877 39.0688 43.3274 39.3158C45.4484 41.5634 47.1312 44.2447 48.277 47.2022C49.4229 50.1597 50.0086 53.3339 49.9999 56.5385C49.9999 59.8312 41.2349 64.6154 27.5 64.6154C13.7651 64.6154 5.00009 59.8285 5.00009 56.5331C4.99157 53.3503 5.56942 50.1974 6.70017 47.2568C7.83092 44.3162 9.49212 41.6464 11.5876 39.4019C11.8263 39.1536 12.0168 38.8565 12.1478 38.528C12.2788 38.1995 12.3478 37.8463 12.3507 37.4888C12.3536 37.1313 12.2903 36.7768 12.1646 36.4459C12.0389 36.115 11.8533 35.8144 11.6186 35.5616C11.3838 35.3088 11.1047 35.1089 10.7975 34.9736C10.4902 34.8382 10.161 34.7701 9.82907 34.7732C9.49712 34.7763 9.16907 34.8506 8.86407 34.9917C8.55906 35.1328 8.2832 35.3379 8.05258 35.595C5.49099 38.339 3.46029 41.603 2.07807 45.198C0.695853 48.793 -0.0104303 52.6475 0.000116396 56.5385C0.000116396 65.2831 14.1676 70 27.5 70C40.8324 70 54.9999 65.2831 54.9999 56.5385C55.011 52.6213 54.295 48.7412 52.8942 45.1262C51.4933 41.5111 49.4358 38.234 46.8424 35.4873Z" fill="white"/>
<path d="M27.4999 37.6923C30.9611 37.6923 34.3445 36.587 37.2224 34.5162C40.1002 32.4453 42.3432 29.502 43.6677 26.0583C44.9923 22.6146 45.3388 18.8253 44.6636 15.1695C43.9884 11.5137 42.3216 8.15561 39.8742 5.51992C37.4268 2.88424 34.3086 1.08932 30.914 0.362132C27.5193 -0.365051 24.0007 0.00816573 20.803 1.43459C17.6053 2.86101 14.8722 5.27657 12.9493 8.3758C11.0264 11.475 10 15.1188 10 18.8462C10.0053 23.8427 11.8507 28.633 15.1315 32.1661C18.4122 35.6992 22.8603 37.6866 27.4999 37.6923ZM27.4999 5.38463C29.9722 5.38463 32.3889 6.17413 34.4445 7.65331C36.5001 9.13248 38.1023 11.2349 39.0484 13.6947C39.9945 16.1544 40.242 18.8611 39.7597 21.4724C39.2774 24.0837 38.0869 26.4823 36.3387 28.3649C34.5906 30.2476 32.3633 31.5296 29.9385 32.0491C27.5138 32.5685 25.0005 32.3019 22.7164 31.283C20.4323 30.2641 18.4801 28.5387 17.1066 26.325C15.7331 24.1113 15 21.5086 15 18.8462C15.0039 15.2773 16.3222 11.8557 18.6655 9.33214C21.0088 6.80854 24.186 5.3889 27.4999 5.38463Z" fill="white"/>
</svg>
