<svg width="18" height="19" viewBox="0 0 18 19" fill="none" xmlns="http://www.w3.org/2000/svg">
<g clip-path="url(#clip0_115_68)">
<path d="M17.7801 17.6492L13.3033 12.9237C14.5233 11.3488 15.1231 9.33913 14.9787 7.31046C14.8343 5.28179 13.9567 3.38931 12.5275 2.02447C11.0983 0.659631 9.22678 -0.0731505 7.30007 -0.0223003C5.37336 0.0285499 3.53886 0.859141 2.17605 2.29767C0.813229 3.7362 0.0263534 5.67261 -0.0218205 7.70636C-0.0699943 9.74011 0.624219 11.7156 1.91723 13.2242C3.21023 14.7329 5.00311 15.6592 6.92501 15.8116C8.84691 15.964 10.7508 15.3309 12.2428 14.0431L16.7196 18.7686C16.861 18.9128 17.0505 18.9926 17.2471 18.9908C17.4438 18.989 17.6319 18.9057 17.771 18.759C17.91 18.6122 17.9889 18.4136 17.9906 18.206C17.9923 17.9985 17.9167 17.7985 17.7801 17.6492ZM7.49984 14.2506C6.31315 14.2506 5.15311 13.8791 4.16642 13.1832C3.17972 12.4873 2.41068 11.4982 1.95656 10.3409C1.50243 9.18362 1.38361 7.9102 1.61512 6.68165C1.84664 5.45311 2.41808 4.32462 3.2572 3.43888C4.09631 2.55315 5.16541 1.94996 6.32929 1.70559C7.49318 1.46121 8.69958 1.58663 9.79594 2.06599C10.8923 2.54534 11.8294 3.3571 12.4887 4.39861C13.1479 5.44013 13.4998 6.66461 13.4998 7.91723C13.4981 9.59635 12.8653 11.2062 11.7405 12.3935C10.6157 13.5808 9.09059 14.2487 7.49984 14.2506Z" fill="white"/>
</g>
<defs>
<clipPath id="clip0_115_68">
<rect width="18" height="19" fill="white"/>
</clipPath>
</defs>
</svg>
