<svg width="34" height="23" viewBox="0 0 34 23" fill="none" xmlns="http://www.w3.org/2000/svg">
<path d="M11.8686 11.1185L7.50675 7.03382L11.1402 3.63136C12.4464 2.40816 14.5598 2.40816 15.866 3.63146C17.1689 4.85162 17.1689 6.83683 15.866 8.05698L13.9287 9.87115C15.0318 9.39648 16.2307 9.14849 17.4446 9.14386L18.6545 9.13865C20.3137 6.86505 20.0683 3.72947 17.9147 1.71278C15.4762 -0.5708 11.5298 -0.571017 9.09121 1.71267L1.82444 8.51761C-0.608167 10.7957 -0.608167 14.5025 1.82456 16.7806C3.00314 17.8842 4.56986 18.492 6.2365 18.492C7.19834 18.492 8.12635 18.2884 8.96627 17.9051C8.94198 17.6688 8.92891 17.4316 8.9271 17.1942C8.91528 14.8694 9.98282 12.6585 11.8686 11.1185Z" fill="white"/>
<path d="M32.1524 12.9628C30.9763 11.8713 29.4168 11.2704 27.7611 11.2704L17.4555 11.3145C14.0153 11.3295 11.2294 13.9626 11.2452 17.1841C11.2611 20.3908 14.0597 22.9998 17.4838 23L27.7895 22.956C31.2297 22.9413 34.0158 20.3082 34 17.0866C33.9925 15.5258 33.3362 14.0612 32.1524 12.9628ZM17.4997 20.2866H17.484C15.6501 20.2865 14.1511 18.8891 14.1427 17.1716C14.1342 15.4462 15.6264 14.0358 17.4689 14.0279L22.6074 14.0059L22.6381 20.2647L17.4997 20.2866Z" fill="white"/>
</svg>
