<svg width="49" height="50" viewBox="0 0 49 50" fill="none" xmlns="http://www.w3.org/2000/svg">
<g filter="url(#filter0_d_123_361)">
<ellipse cx="24.5" cy="21" rx="20.5" ry="21" fill="#4EBDAA"/>
</g>
<path d="M34.125 19.5833H20.375L24.8987 14.9225C25.0276 14.7908 25.1299 14.6341 25.1997 14.4614C25.2695 14.2888 25.3055 14.1036 25.3055 13.9166C25.3055 13.7296 25.2695 13.5444 25.1997 13.3718C25.1299 13.1992 25.0276 13.0425 24.8987 12.9108C24.6411 12.6469 24.2926 12.4988 23.9294 12.4988C23.5661 12.4988 23.2176 12.6469 22.96 12.9108L17.0613 19.0025C16.5448 19.5314 16.2531 20.2497 16.25 21V21C16.2567 21.7453 16.5482 22.4578 17.0613 22.9833L22.96 29.0749C23.0882 29.2061 23.2402 29.31 23.4074 29.3806C23.5745 29.4512 23.7536 29.4872 23.9342 29.4866C24.1149 29.4859 24.2937 29.4486 24.4603 29.3768C24.627 29.3049 24.7783 29.1999 24.9056 29.0679C25.0329 28.9358 25.1337 28.7791 25.2023 28.6069C25.2708 28.4347 25.3058 28.2502 25.3051 28.0641C25.3045 27.878 25.2683 27.6938 25.1986 27.522C25.1288 27.3503 25.027 27.1944 24.8987 27.0633L20.375 22.4166H34.125C34.4897 22.4166 34.8394 22.2674 35.0973 22.0017C35.3551 21.736 35.5 21.3757 35.5 21C35.5 20.6242 35.3551 20.2639 35.0973 19.9982C34.8394 19.7325 34.4897 19.5833 34.125 19.5833Z" fill="white"/>
<defs>
<filter id="filter0_d_123_361" x="0" y="0" width="49" height="50" filterUnits="userSpaceOnUse" color-interpolation-filters="sRGB">
<feFlood flood-opacity="0" result="BackgroundImageFix"/>
<feColorMatrix in="SourceAlpha" type="matrix" values="0 0 0 0 0 0 0 0 0 0 0 0 0 0 0 0 0 0 127 0" result="hardAlpha"/>
<feOffset dy="4"/>
<feGaussianBlur stdDeviation="2"/>
<feComposite in2="hardAlpha" operator="out"/>
<feColorMatrix type="matrix" values="0 0 0 0 0 0 0 0 0 0 0 0 0 0 0 0 0 0 0.55 0"/>
<feBlend mode="normal" in2="BackgroundImageFix" result="effect1_dropShadow_123_361"/>
<feBlend mode="normal" in="SourceGraphic" in2="effect1_dropShadow_123_361" result="shape"/>
</filter>
</defs>
</svg>
