<svg width="26" height="23" viewBox="0 0 26 23" fill="none" xmlns="http://www.w3.org/2000/svg">
<path d="M25.7088 0.543554C25.4231 0.193029 24.9652 0 24.4194 0C24.1632 0 23.8884 0.0427206 23.603 0.126949L1.49024 6.64699C0.72645 6.87218 0.200025 7.3324 0.0458955 7.90974C-0.108234 8.48712 0.129892 9.10713 0.69923 9.61088C0.754899 9.66016 0.818867 9.7015 0.888857 9.73343L10.1986 13.9784L14.9977 22.2136C15.0338 22.2754 15.0805 22.332 15.1362 22.3812C15.5937 22.786 16.1213 23 16.6622 23H16.6623C17.4814 23 18.1806 22.4947 18.4868 21.6816L25.8579 2.12143C26.0896 1.50627 26.0366 0.945918 25.7088 0.543554ZM1.52863 8.21947C1.55778 8.11018 1.72771 7.99756 1.97198 7.92551L22.9602 1.73699L10.6188 12.6537L1.70424 8.589C1.56997 8.45019 1.5036 8.31327 1.52863 8.21947ZM17.0415 21.2555C16.9692 21.4473 16.8316 21.6523 16.6623 21.6523C16.5597 21.6523 16.4255 21.5936 16.2915 21.4922L11.6961 13.6067L24.0378 2.68965L17.0415 21.2555Z" fill="white"/>
</svg>
