<svg width="27" height="26" viewBox="0 0 27 26" fill="none" xmlns="http://www.w3.org/2000/svg">
<g clip-path="url(#clip0_171_78)">
<path d="M26.67 24.1515L19.9549 17.6851C21.7848 15.5299 22.6846 12.7799 22.468 10.0038C22.2514 7.22772 20.935 4.63801 18.7912 2.77034C16.6473 0.902657 13.84 -0.100096 10.95 -0.0305114C8.05991 0.0390731 5.30817 1.17567 3.26395 3.14419C1.21972 5.1127 0.039408 7.76252 -0.0328528 10.5456C-0.105114 13.3286 0.936207 16.0319 2.87572 18.0963C4.81523 20.1608 7.50454 21.4284 10.3874 21.6369C13.2702 21.8455 16.1261 20.9791 18.3641 19.2169L25.0793 25.6834C25.2914 25.8807 25.5756 25.9899 25.8706 25.9874C26.1656 25.985 26.4477 25.871 26.6563 25.6702C26.8649 25.4693 26.9832 25.1976 26.9858 24.9135C26.9883 24.6295 26.8749 24.3558 26.67 24.1515ZM11.2496 19.5008C9.4696 19.5008 7.72954 18.9925 6.2495 18.0402C4.76946 17.0879 3.61591 15.7343 2.93472 14.1507C2.25353 12.5671 2.0753 10.8245 2.42256 9.14332C2.76983 7.46215 3.627 5.9179 4.88567 4.70585C6.14434 3.49379 7.74799 2.66837 9.49382 2.33397C11.2396 1.99956 13.0492 2.17119 14.6938 2.82715C16.3383 3.48311 17.7439 4.59394 18.7329 6.01916C19.7218 7.44439 20.2496 9.12 20.2496 10.8341C20.247 13.1319 19.2979 15.3348 17.6106 16.9595C15.9234 18.5843 13.6358 19.4982 11.2496 19.5008Z" fill="white"/>
</g>
<defs>
<clipPath id="clip0_171_78">
<rect width="27" height="26" fill="white"/>
</clipPath>
</defs>
</svg>
