<svg width="40" height="44" viewBox="0 0 40 44" fill="none" xmlns="http://www.w3.org/2000/svg">
<path d="M11.1179 34V32C11.1179 26.4772 15.2001 22 20.2357 22C25.2713 22 29.3536 26.4772 29.3536 32V34" stroke="black" stroke-width="3" stroke-linecap="round"/>
<path d="M20.2358 22C23.2573 22 25.7065 19.3138 25.7065 16C25.7065 12.6863 23.2573 10 20.2358 10C17.2144 10 14.7651 12.6863 14.7651 16C14.7651 19.3138 17.2144 22 20.2358 22Z" stroke="black" stroke-width="3" stroke-linecap="round" stroke-linejoin="round"/>
<path d="M20.2356 42C30.3069 42 38.4713 33.0457 38.4713 22C38.4713 10.9543 30.3069 2 20.2356 2C10.1644 2 2 10.9543 2 22C2 33.0457 10.1644 42 20.2356 42Z" stroke="black" stroke-width="3"/>
</svg>
