<svg width="23" height="28" viewBox="0 0 23 28" fill="none" xmlns="http://www.w3.org/2000/svg">
<path d="M22.8626 0.162949C22.683 -0.0543162 22.3876 -0.0543162 22.208 0.162949L19.1972 3.80213C18.5015 3.31329 17.5964 3.42192 17.0017 4.14161L16.7512 4.44488C15.947 3.63919 14.7539 3.67992 14.0022 4.59425L11.1933 7.99353L6.45455 13.7329L6.31616 13.5655C5.7327 12.8594 4.71164 12.8548 4.12444 13.5655C3.83271 13.9185 3.67188 14.3893 3.67188 14.8917C3.67188 15.3941 3.83271 15.8649 4.12444 16.2179L5.52325 17.9108L3.0585 20.8936L2.64334 20.3912C2.05988 19.6851 1.03882 19.6851 0.451622 20.3912C-0.150541 21.1199 -0.150541 22.3104 0.451622 23.0436L4.09452 27.4523C4.38625 27.8054 4.77523 28 5.19038 28C5.60554 28 5.99451 27.8054 6.28624 27.4523C6.57797 27.0993 6.7388 26.6285 6.7388 26.1261C6.7388 25.6237 6.57797 25.1529 6.28624 24.7999L5.83743 24.2567L8.30218 21.2738L9.40552 22.6091C9.69725 22.9622 10.0862 23.1568 10.5014 23.1568C10.9165 23.1568 11.3055 22.9622 11.5972 22.6091C11.889 22.2561 12.0498 21.7853 12.0498 21.2829C12.0502 20.8082 11.9003 20.3515 11.6309 20.0065L19.186 10.8632C19.934 9.95797 19.9714 8.52764 19.3206 7.55448L19.5712 7.25121C20.1659 6.53152 20.2557 5.43615 19.8517 4.59425L22.8626 0.95506C23.0458 0.733269 23.0458 0.380213 22.8626 0.162949ZM5.63172 26.6511C5.39609 26.9363 4.98841 26.9363 4.75278 26.6511L1.10989 22.2425C1.0521 22.1727 1.00625 22.0898 0.974972 21.9985C0.943691 21.9073 0.92759 21.8094 0.92759 21.7106C0.92759 21.6118 0.943691 21.514 0.974972 21.4227C1.00625 21.3315 1.0521 21.2486 1.10989 21.1788C1.22583 21.0385 1.38292 20.957 1.55122 20.957C1.71579 20.957 1.87288 21.0339 1.98882 21.1788L5.63172 25.5875C5.74766 25.7278 5.81498 25.9179 5.81498 26.117C5.81498 26.3207 5.7514 26.5108 5.63172 26.6511ZM17.66 4.93372C18.0078 4.51277 18.5726 4.51277 18.9167 4.93372C19.2645 5.35467 19.2645 6.03815 18.9167 6.45458L18.6811 6.73974L17.4244 5.21888L17.66 4.93372ZM5.1829 23.4601L3.71303 21.6812L6.17404 18.7029L7.64391 20.4817L5.1829 23.4601ZM10.9427 21.8125C10.7071 22.0976 10.2994 22.0976 10.0638 21.8125L8.63131 20.0789L6.50691 17.5079L4.77897 15.4167C4.72104 15.347 4.67508 15.2642 4.64371 15.1729C4.61235 15.0816 4.5962 14.9838 4.5962 14.8849C4.5962 14.786 4.61235 14.6882 4.64371 14.5969C4.67508 14.5056 4.72104 14.4228 4.77897 14.3531C4.83656 14.283 4.90503 14.2273 4.98045 14.1894C5.05587 14.1514 5.13675 14.1319 5.21843 14.1319C5.30011 14.1319 5.38099 14.1514 5.45641 14.1894C5.53183 14.2273 5.60031 14.283 5.6579 14.3531L10.9427 20.7488C11.0587 20.8891 11.126 21.0792 11.126 21.2784C11.1222 21.4821 11.0587 21.6722 10.9427 21.8125ZM18.5315 10.0666L10.9801 19.2098L7.10907 14.5251L7.9319 13.5293L8.26104 13.9276C8.34897 14.0317 8.46712 14.0901 8.59017 14.0901C8.71322 14.0901 8.83137 14.0317 8.9193 13.9276C9.09883 13.7103 9.09883 13.3527 8.9193 13.1355L8.59017 12.7371L9.73091 11.3566L10.7183 12.547C10.8062 12.6512 10.9244 12.7095 11.0474 12.7095C11.1705 12.7095 11.2886 12.6512 11.3766 12.547C11.5561 12.3298 11.5561 11.9722 11.3766 11.7549L10.3892 10.5645L11.5299 9.18396L12.1882 9.9806C12.2761 10.0848 12.3943 10.1431 12.5173 10.1431C12.6404 10.1431 12.7585 10.0848 12.8465 9.9806C13.026 9.76334 13.026 9.40576 12.8465 9.18849L12.1882 8.39185L13.3289 7.01132L14.3163 8.20627C14.4043 8.31044 14.5224 8.36878 14.6455 8.36878C14.7685 8.36878 14.8867 8.31044 14.9746 8.20627C15.1541 7.98901 15.1541 7.63143 14.9746 7.41416L13.9872 6.21921L14.6716 5.39088C14.882 5.13659 15.1672 4.99376 15.4645 4.99376C15.7619 4.99376 16.0471 5.13659 16.2575 5.39088L16.4482 5.62173L18.3632 7.93922L18.5389 8.15196C18.7464 8.40791 18.862 8.75262 18.8606 9.11114C18.8592 9.46967 18.7409 9.81303 18.5315 10.0666Z" fill="#4EBDAA"/>
</svg>
